<?xml version="1.0" encoding="UTF-8"?>
<svg width="128" height="128" viewBox="0 0 128 128" fill="none" xmlns="http://www.w3.org/2000/svg" role="img" aria-labelledby="title">
  <title>Cash on Delivery</title>
  <defs>
    <linearGradient id="primaryGrad" x1="0" y1="0" x2="1" y2="1">
      <stop offset="0%" stop-color="#5B0FFF"/>
      <stop offset="100%" stop-color="#4B0DB3"/>
    </linearGradient>
  </defs>
  <!-- Soft background badge -->
  <circle cx="64" cy="64" r="56" fill="#f3f5ff"/>
  <!-- Package box -->
  <rect x="22" y="28" width="84" height="44" rx="8" fill="url(#primaryGrad)"/>
  <rect x="28" y="34" width="72" height="32" rx="6" fill="#ffffff" opacity="0.96"/>
  <!-- Banknote to indicate cash -->
  <rect x="34" y="42" width="52" height="18" rx="3" fill="#22c55e"/>
  <circle cx="60" cy="51" r="6" fill="#ffffff" opacity="0.9"/>
  <path d="M56 46h8M56 56h8" stroke="#15803d" stroke-width="2" stroke-linecap="round"/>

  <!-- Handshake (stylized) -->
  <!-- Left hand -->
  <path d="M26 78c6-6 18-6 24 0l8 8" fill="none" stroke="#5B0FFF" stroke-width="4" stroke-linecap="round"/>
  <path d="M50 74l12 12c2 2 6 2 8 0l8-8" fill="none" stroke="#5B0FFF" stroke-width="4" stroke-linecap="round"/>
  <!-- Right hand -->
  <path d="M102 78c-6-6-18-6-24 0l-4 4" fill="none" stroke="#5B0FFF" stroke-width="4" stroke-linecap="round"/>
  <!-- Fingers / grip -->
  <path d="M66 90c3 0 6-1 8-3l10-10" fill="none" stroke="#5B0FFF" stroke-width="4" stroke-linecap="round"/>
  <path d="M54 82l4 4M58 78l4 4" stroke="#5B0FFF" stroke-width="3" stroke-linecap="round"/>

  <!-- Small delivery tick -->
  <circle cx="92" cy="94" r="10" fill="#22c55e"/>
  <path d="M88 94l3 3 6-7" stroke="#ffffff" stroke-width="3" stroke-linecap="round" stroke-linejoin="round"/>
</svg>
